<svg xmlns="http://www.w3.org/2000/svg" xmlns:xlink="http://www.w3.org/1999/xlink" aria-hidden="true" role="img" class="iconify iconify--ph" width="32" height="32" preserveAspectRatio="xMidYMid meet" viewBox="0 0 256 256"><path fill="currentColor" d="M32 64a8 8 0 0 1 8-8h176a8 8 0 0 1 0 16H40a8 8 0 0 1-8-8Zm8 72h120a8 8 0 0 0 0-16H40a8 8 0 0 0 0 16Zm72 48H40a8 8 0 0 0 0 16h72a8 8 0 0 0 0-16Zm135.7-57.7a8.2 8.2 0 0 1-10 5.4l-29.7-8.9V192a32 32 0 1 1-16-27.7V112a8.1 8.1 0 0 1 3.2-6.4a8.2 8.2 0 0 1 7.1-1.3l40 12a8.2 8.2 0 0 1 5.4 10ZM192 192a16 16 0 1 0-16 16a16 16 0 0 0 16-16Z"></path></svg>